<?xml version="1.0" encoding="utf-8"?>
<!-- Generator: Adobe Illustrator 22.0.1, SVG Export Plug-In . SVG Version: 6.00 Build 0)  -->
<svg version="1.1" id="Ebene_1" xmlns="http://www.w3.org/2000/svg" xmlns:xlink="http://www.w3.org/1999/xlink" x="0px" y="0px"
	 viewBox="0 0 164.2 171.2" style="enable-background:new 0 0 164.2 171.2;" xml:space="preserve">
<style type="text/css">
	.st0{fill:#FFFFFF;}
</style>
<g>
	<path class="st0" d="M111.8,85.8H50.4c-1.6,0-3,1.3-3,3s1.3,3,3,3h61.5c1.6,0,3-1.3,3-3S113.5,85.8,111.8,85.8z"/>
	<path class="st0" d="M111.8,67.5H50.4c-1.6,0-3,1.3-3,3c0,1.6,1.3,3,3,3h61.5c1.6,0,3-1.3,3-3C114.8,68.8,113.5,67.5,111.8,67.5z"
		/>
	<path class="st0" d="M84.1,94.9H50.4c-1.6,0-3,1.3-3,3c0,1.6,1.3,3,3,3h33.8c1.6,0,3-1.3,3-3C87.1,96.2,85.8,94.9,84.1,94.9z"/>
	<path class="st0" d="M111.8,76.6H50.4c-1.6,0-3,1.3-3,3s1.3,3,3,3h61.5c1.6,0,3-1.3,3-3S113.5,76.6,111.8,76.6z"/>
	<path class="st0" d="M82,16.1c-38.5,0-69.7,31.2-69.7,69.7c0,38.5,31.2,69.7,69.7,69.7c38.5,0,69.7-31.2,69.7-69.7
		C151.7,47.3,120.5,16.1,82,16.1z M119.2,129.6c0,1.9-1.5,3.4-3.4,3.4H46.5c-1.9,0-3.4-1.5-3.4-3.4V42.9c0-1.9,1.5-3.4,3.4-3.4h69.3
		c1.9,0,3.4,1.5,3.4,3.4V129.6z"/>
	<path class="st0" d="M111.8,58.4H50.4c-1.6,0-3,1.3-3,3s1.3,3,3,3h61.5c1.6,0,3-1.3,3-3S113.5,58.4,111.8,58.4z"/>
	<path class="st0" d="M111.8,49.2H50.4c-1.6,0-3,1.3-3,3c0,1.6,1.3,3,3,3h61.5c1.6,0,3-1.3,3-3C114.8,50.6,113.5,49.2,111.8,49.2z"
		/>
</g>
</svg>
