<?xml version="1.0" encoding="utf-8"?>
<!-- Generator: Adobe Illustrator 22.0.1, SVG Export Plug-In . SVG Version: 6.00 Build 0)  -->
<svg version="1.1" id="Ebene_1" xmlns="http://www.w3.org/2000/svg" xmlns:xlink="http://www.w3.org/1999/xlink" x="0px" y="0px"
	 viewBox="0 0 100 100" style="enable-background:new 0 0 100 100;" xml:space="preserve">
<style type="text/css">
	.st0{fill:#FFFFFF;}
</style>
<path class="st0" d="M50,9C27.5,9,9.3,27.2,9.3,49.7c0,22.5,18.2,40.7,40.7,40.7s40.7-18.2,40.7-40.7C90.7,27.2,72.5,9,50,9z
	 M51,64.8H31.3c-1,0-1.7-0.8-1.7-1.7c0-1,0.8-1.7,1.7-1.7H51c1,0,1.7,0.8,1.7,1.7C52.8,64.1,52,64.8,51,64.8z M67.2,59.5H31.3
	c-1,0-1.7-0.8-1.7-1.7c0-0.9,0.8-1.7,1.7-1.7h35.9c1,0,1.7,0.8,1.7,1.7C68.9,58.7,68.2,59.5,67.2,59.5z M67.2,54.1H31.3
	c-1,0-1.7-0.8-1.7-1.7c0-1,0.8-1.7,1.7-1.7h35.9c1,0,1.7,0.8,1.7,1.7C68.9,53.4,68.2,54.1,67.2,54.1z M67.2,48.8H31.3
	c-1,0-1.7-0.8-1.7-1.7c0-0.9,0.8-1.7,1.7-1.7h35.9c1,0,1.7,0.8,1.7,1.7C68.9,48,68.2,48.8,67.2,48.8z M67.2,43.5H31.3
	c-1,0-1.7-0.8-1.7-1.7c0-1,0.8-1.7,1.7-1.7h35.9c1,0,1.7,0.8,1.7,1.7C68.9,42.7,68.2,43.5,67.2,43.5z M67.2,38.1H31.3
	c-1,0-1.7-0.8-1.7-1.7c0-0.9,0.8-1.7,1.7-1.7h35.9c1,0,1.7,0.8,1.7,1.7C68.9,37.3,68.2,38.1,67.2,38.1z"/>
</svg>
