<?xml version="1.0" encoding="utf-8"?>
<!-- Generator: Adobe Illustrator 22.0.1, SVG Export Plug-In . SVG Version: 6.00 Build 0)  -->
<svg version="1.1" id="Ebene_1" xmlns="http://www.w3.org/2000/svg" xmlns:xlink="http://www.w3.org/1999/xlink" x="0px" y="0px"
	 viewBox="0 0 164.2 171.2" style="enable-background:new 0 0 164.2 171.2;" xml:space="preserve">
<style type="text/css">
	.st0{fill:#FFFFFF;}
</style>
<g>
	<path class="st0" d="M80.9,16c-38.5,0-69.7,31.2-69.7,69.7c0,38.5,31.2,69.7,69.7,69.7c38.5,0,69.7-31.2,69.7-69.7
		C150.6,47.2,119.4,16,80.9,16z M112.5,85.6c-2.2,4-4.8,7.8-7.4,11.6c-4,5.9-7.2,12.1-9.3,19c-1.9,6.1-4.7,11.6-9.9,15.5
		c-5.4,4.1-11.3,4.8-17.3,1.9c-5.9-2.8-8.4-8.1-8.9-14.5c-0.2-2.7,1-4.3,3.1-4.5c2.2-0.2,3.6,1.2,4,4c0.6,4,1.9,7.5,6.1,8.8
		c4.2,1.3,7.9,0.1,10.5-3.4c2.2-2.9,4.1-6.2,5.3-9.7c2.8-8.3,6.7-15.9,11.7-23c2.6-3.7,5-7.5,6.9-11.6c3.8-8.3,3.2-16.7-1-24.6
		c-5.1-9.6-13.9-11.9-23.7-11.4c-2.8,0.1-5.6,0.7-8.2,1.7c-6.6,2.4-10.5,7.4-12.1,14.4C61.6,62.2,60,63.5,58,63
		c-2.3-0.5-3.4-2.6-2.7-5.3c2.9-12.5,13.3-21.2,26.2-21.6c1,0,2,0,3.1,0c16.6,0,28,8.6,31.5,24.3C117.9,69.2,117,77.7,112.5,85.6z
		 M86.5,55.9c-0.7-0.1-1.4-0.1-2-0.1c-7.7-0.3-13.1,4.7-14.2,13c-0.3,2.1-0.1,4.2-0.1,6.2c0,2.4,1,4.3,3,5.7
		c6.7,4.8,5.9,11.9,2.5,17c-0.7,1.1-1.5,2.2-2,3.3c-0.9,1.9-0.9,3.9,0.9,5.2c1.7,1.2,3.3,0.4,4.6-1c1-1.1,1.9-2.4,2.8-3.7
		c1-1.4,2.1-2.1,3.6-1.2c1.6,1,1.8,2.5,0.7,4c-1.4,1.9-2.8,4-4.6,5.5c-3,2.7-7.5,2.8-10.4,0.6c-3-2.2-4.4-7-2.9-10.8
		c0.8-1.9,2-3.6,3-5.4c2.3-3.9,2-6.6-1.5-9.3c-5.1-3.9-5.6-9.4-5.2-15.2c0.1-1.6,0.5-3.3,0.9-4.9c3.7-14,19.6-19.6,31-10.8
		c5.4,4.2,6.6,10.1,6,16.6c-0.1,1.5-0.3,3.1-0.9,4.3c-0.6,1-2,2.1-3,2.1c-1.7,0-2.3-1.6-2-3.3c0.2-1.5,0.5-2.9,0.7-4.4
		C98.4,61.7,94.2,56.5,86.5,55.9z"/>
</g>
</svg>
