<?xml version="1.0" encoding="utf-8"?>
<!-- Generator: Adobe Illustrator 22.0.1, SVG Export Plug-In . SVG Version: 6.00 Build 0)  -->
<svg version="1.1" id="Ebene_1" xmlns="http://www.w3.org/2000/svg" xmlns:xlink="http://www.w3.org/1999/xlink" x="0px" y="0px"
	 viewBox="0 0 164.2 171.2" style="enable-background:new 0 0 164.2 171.2;" xml:space="preserve">
<style type="text/css">
	.st0{fill:#FFFFFF;}
</style>
<g>
	<path class="st0" d="M112.4,83.1c-0.6-0.4-1.3-0.7-1.9-1.1C98.1,75.2,86.2,67.5,75,58.8c-1.7-1.3-3.3-2.7-5-4.1
		c-0.3-0.2-0.7-0.7-0.9,0c-0.3,0.8-0.6,1.6-0.7,2.4c-0.1,0.4,0.1,0.9,0.3,1.2c1.5,1.8,2.5,3.8,3.4,6c1.1,2.9,1.9,5.8,2.3,8.9
		c0.4,3.6,0.8,7.3,0.9,11c0.1,5.4-0.5,10.8-2,16c-1,3.3-2.2,6.5-4.4,9.2c-0.2,0.2-0.3,0.5-0.5,0.7c0.3,0.7,0.5,1.4,0.7,2.1
		c0.4,1,0.4,1,1.2,0.3c7.1-6.2,14.6-11.8,22.5-17c6.4-4.2,13-8,19.8-11.4c0.2-0.1,0.3-0.2,0.5-0.4C112.8,83.4,112.6,83.2,112.4,83.1
		z"/>
	<path class="st0" d="M82,16.1c-38.5,0-69.7,31.2-69.7,69.7c0,38.5,31.2,69.7,69.7,69.7c38.5,0,69.7-31.2,69.7-69.7
		C151.7,47.3,120.5,16.1,82,16.1z M122.6,87.6c-10.2,4.3-19.7,9.8-28.8,15.9c-7.3,4.9-14.2,10.2-20.8,16c-2.8,2.5-5.4,5.1-8.1,7.6
		c-1.2,1.2-2.7,1.5-3.9,0.7c-1.4-0.8-2.3-2.7-1.7-4.2c0.3-0.8,0.8-1.7,1.4-2.3c0.9-1,1.9-1.9,2.9-2.9c0.2-0.2,0.4-0.7,0.3-1
		c-0.7-2.2-1.4-4.3-2.2-6.5c-0.1-0.2-0.2-0.4-0.3-0.5c-2.5-2.1-3.9-4.9-4.9-7.9c-2.6-7.5-3.3-15.3-2.6-23.2c0.3-3.1,0.6-6.2,1.2-9.2
		c0.8-3.9,2-7.6,4.4-10.9c0.2-0.3,0.4-0.7,0.7-0.9c1.4-1,1.8-2.5,2.3-4.1c0.4-1.4,0.9-2.7,1.4-4c0.2-0.6,0.2-1-0.3-1.4
		c-1.1-1-2.2-2-3.2-3c-1.5-1.6-1.6-3.9-0.2-5.5c1.3-1.5,3.2-1.6,4.7-0.2c2.8,2.6,5.5,5.2,8.4,7.6c4.1,3.4,8.3,6.8,12.7,9.9
		c7.8,5.7,15.9,10.9,24.3,15.6c4.3,2.4,8.6,4.6,13,6.8c1.5,0.8,2.1,2.1,2.2,3.5C125.2,85.6,124.3,86.8,122.6,87.6z"/>
</g>
</svg>
