<?xml version="1.0" encoding="utf-8"?>
<!-- Generator: Adobe Illustrator 22.0.1, SVG Export Plug-In . SVG Version: 6.00 Build 0)  -->
<svg version="1.1" id="Ebene_1" xmlns="http://www.w3.org/2000/svg" xmlns:xlink="http://www.w3.org/1999/xlink" x="0px" y="0px"
	 viewBox="0 0 100 100" style="enable-background:new 0 0 100 100;" xml:space="preserve">
<style type="text/css">
	.st0{fill:#FFFFFF;}
</style>
<path class="st0" d="M91,47.1c-1.6-22.6-21.2-39.6-43.8-38c-22.6,1.6-39.6,21.2-38,43.8c1.6,22.6,21.2,39.6,43.8,38
	C75.6,89.3,92.6,69.7,91,47.1z M62.2,48.5c-0.1,0-0.2,0.1-0.4,0.1c0-0.2,0-0.4,0.1-0.5c0.3-1.1,0.5-2.2,0.5-3.4
	c-0.1-1.6-0.7-3.1-1.5-4.5c-1.2-2-2.7-3.7-4.3-5.4c-0.3-0.3-0.5-0.6-0.9-1c0,0.2,0,0.4,0,0.5c0,8.5,0,16.9,0,25.4
	c0,2.1-0.8,3.8-2.2,5.3c-2,2.1-4.4,3.2-7.2,3.5c-2.1,0.3-4.2,0-6-1.1c-2.9-1.7-3.8-5.1-2.2-8.1c1.6-2.8,4.1-4.4,7.1-5.2
	c2.1-0.5,4.3-0.5,6.3,0.3h0.1c0-0.1,0-0.2,0-0.3c0-8.3,0-16.5,0-24.8c0-0.3,0-0.7,0.1-1c0-0.2,0.2-0.4,0.3-0.7
	c0.2,0.1,0.4,0.1,0.6,0.1c1.1,0.6,2.3,1.1,3.4,1.8c2.7,1.5,5.2,3.3,7.4,5.5c1.6,1.7,2.7,3.6,3,5.9C66.8,44.1,65.6,46.9,62.2,48.5z"
	/>
</svg>
